<svg xmlns="http://www.w3.org/2000/svg" viewBox="0 0 920 720" font-family="system-ui, -apple-system, sans-serif" font-size="13">
  <defs>
    <marker id="arrow" markerWidth="8" markerHeight="6" refX="8" refY="3" orient="auto">
      <path d="M0,0 L8,3 L0,6" fill="#64748b"/>
    </marker>
    <marker id="arrow-rev" markerWidth="8" markerHeight="6" refX="0" refY="3" orient="auto">
      <path d="M8,0 L0,3 L8,6" fill="#64748b"/>
    </marker>
    <marker id="arrow-purple" markerWidth="8" markerHeight="6" refX="8" refY="3" orient="auto">
      <path d="M0,0 L8,3 L0,6" fill="#a855f7"/>
    </marker>
    <marker id="arrow-purple-rev" markerWidth="8" markerHeight="6" refX="0" refY="3" orient="auto">
      <path d="M8,0 L0,3 L8,6" fill="#a855f7"/>
    </marker>
  </defs>

  <!-- Background -->
  <rect width="920" height="720" fill="#f8fafc" rx="8"/>

  <!-- Title -->
  <text x="460" y="30" text-anchor="middle" font-size="18" font-weight="bold" fill="#0f172a">PAS Architecture</text>

  <!-- Telegram -->
  <rect x="280" y="50" width="220" height="44" rx="6" fill="#0088cc" opacity="0.9"/>
  <text x="390" y="77" text-anchor="middle" fill="white" font-weight="600">Telegram Bot API</text>

  <!-- Bidirectional arrow: Telegram <-> Router -->
  <line x1="385" y1="94" x2="385" y2="128" stroke="#64748b" stroke-width="1.5" marker-end="url(#arrow)"/>
  <line x1="395" y1="128" x2="395" y2="94" stroke="#64748b" stroke-width="1.5" marker-end="url(#arrow)"/>
  <text x="410" y="115" font-size="9" fill="#94a3b8">messages</text>
  <text x="410" y="125" font-size="9" fill="#94a3b8">+ responses</text>

  <!-- Management GUI -->
  <rect x="620" y="50" width="250" height="44" rx="6" fill="#fef9c3" stroke="#eab308" stroke-width="1.5"/>
  <text x="745" y="72" text-anchor="middle" font-weight="bold" fill="#854d0e">Management GUI</text>
  <text x="745" y="86" text-anchor="middle" font-size="10" fill="#854d0e">Fastify + htmx + Pico CSS</text>

  <!-- Arrow: GUI <-> Core -->
  <line x1="740" y1="94" x2="740" y2="178" stroke="#64748b" stroke-width="1.5" marker-end="url(#arrow)"/>
  <line x1="750" y1="178" x2="750" y2="94" stroke="#64748b" stroke-width="1.5" marker-end="url(#arrow)"/>

  <!-- Message Router box -->
  <rect x="220" y="130" width="390" height="70" rx="6" fill="#dbeafe" stroke="#3b82f6" stroke-width="1.5"/>
  <text x="415" y="152" text-anchor="middle" font-weight="bold" fill="#1e40af">Message Router</text>
  <text x="415" y="170" text-anchor="middle" font-size="11" fill="#3b82f6">/command  |  Photo classify  |  NL intent  |  Fallback</text>
  <text x="415" y="185" text-anchor="middle" font-size="10" fill="#64748b">rate limiting, authorization, space context injection</text>

  <!-- Bidirectional arrow: Router <-> Apps -->
  <line x1="410" y1="200" x2="410" y2="232" stroke="#64748b" stroke-width="1.5" marker-end="url(#arrow)"/>
  <line x1="420" y1="232" x2="420" y2="200" stroke="#64748b" stroke-width="1.5" marker-end="url(#arrow)"/>

  <!-- Apps row -->
  <rect x="50" y="234" width="820" height="74" rx="6" fill="#f0fdf4" stroke="#22c55e" stroke-width="1.5" stroke-dasharray="6,3"/>
  <text x="70" y="254" font-weight="bold" fill="#166534" font-size="12">APPS</text>

  <rect x="70" y="262" width="100" height="36" rx="4" fill="#bbf7d0"/>
  <text x="120" y="285" text-anchor="middle" font-size="11" fill="#166534">Echo</text>

  <rect x="185" y="262" width="100" height="36" rx="4" fill="#bbf7d0"/>
  <text x="235" y="285" text-anchor="middle" font-size="11" fill="#166534">Notes</text>

  <rect x="300" y="262" width="100" height="36" rx="4" fill="#bbf7d0"/>
  <text x="350" y="285" text-anchor="middle" font-size="11" fill="#166534">Chatbot</text>

  <rect x="415" y="262" width="100" height="36" rx="4" fill="#86efac"/>
  <text x="465" y="285" text-anchor="middle" font-size="11" font-weight="600" fill="#166534">Food</text>

  <rect x="530" y="262" width="100" height="36" rx="4" fill="#bbf7d0" stroke="#22c55e" stroke-dasharray="4,2"/>
  <text x="580" y="285" text-anchor="middle" font-size="11" fill="#166534">Your App</text>

  <text x="660" y="254" font-size="10" fill="#64748b">manifest.yaml</text>
  <text x="660" y="268" font-size="10" fill="#64748b">declares intents,</text>
  <text x="660" y="282" font-size="10" fill="#64748b">commands, photos,</text>
  <text x="660" y="296" font-size="10" fill="#64748b">schedules, config</text>

  <!-- Bidirectional arrow: Apps <-> Core Services -->
  <line x1="410" y1="308" x2="410" y2="340" stroke="#64748b" stroke-width="1.5" marker-end="url(#arrow)"/>
  <line x1="420" y1="340" x2="420" y2="308" stroke="#64748b" stroke-width="1.5" marker-end="url(#arrow)"/>
  <text x="435" y="330" font-size="10" fill="#64748b">CoreServices DI</text>

  <!-- Core Services row -->
  <rect x="50" y="342" width="820" height="100" rx="6" fill="#eff6ff" stroke="#3b82f6" stroke-width="1.5"/>
  <text x="70" y="362" font-weight="bold" fill="#1e40af" font-size="12">CORE SERVICES</text>

  <!-- Service boxes - row 1 -->
  <rect x="70" y="370" width="105" height="28" rx="4" fill="#bfdbfe"/>
  <text x="122" y="389" text-anchor="middle" font-size="11" fill="#1e40af">LLM Service</text>

  <rect x="185" y="370" width="105" height="28" rx="4" fill="#bfdbfe"/>
  <text x="237" y="389" text-anchor="middle" font-size="11" fill="#1e40af">Data Store</text>

  <rect x="300" y="370" width="105" height="28" rx="4" fill="#bfdbfe"/>
  <text x="352" y="389" text-anchor="middle" font-size="11" fill="#1e40af">Scheduler</text>

  <rect x="415" y="370" width="105" height="28" rx="4" fill="#bfdbfe"/>
  <text x="467" y="389" text-anchor="middle" font-size="11" fill="#1e40af">Event Bus</text>

  <rect x="530" y="370" width="105" height="28" rx="4" fill="#bfdbfe"/>
  <text x="582" y="389" text-anchor="middle" font-size="11" fill="#1e40af">Telegram</text>

  <rect x="645" y="370" width="105" height="28" rx="4" fill="#bfdbfe"/>
  <text x="697" y="389" text-anchor="middle" font-size="11" fill="#1e40af">Audio</text>

  <!-- Service boxes - row 2 -->
  <rect x="70" y="404" width="105" height="28" rx="4" fill="#bfdbfe"/>
  <text x="122" y="423" text-anchor="middle" font-size="11" fill="#1e40af">LLM Guard</text>

  <rect x="185" y="404" width="105" height="28" rx="4" fill="#bfdbfe"/>
  <text x="237" y="423" text-anchor="middle" font-size="11" fill="#1e40af">Spaces</text>

  <rect x="300" y="404" width="105" height="28" rx="4" fill="#bfdbfe"/>
  <text x="352" y="423" text-anchor="middle" font-size="11" fill="#1e40af">Reports</text>

  <rect x="415" y="404" width="105" height="28" rx="4" fill="#bfdbfe"/>
  <text x="467" y="423" text-anchor="middle" font-size="11" fill="#1e40af">Alerts</text>

  <rect x="530" y="404" width="105" height="28" rx="4" fill="#bfdbfe"/>
  <text x="582" y="423" text-anchor="middle" font-size="11" fill="#1e40af">Context Store</text>

  <rect x="645" y="404" width="105" height="28" rx="4" fill="#bfdbfe"/>
  <text x="697" y="423" text-anchor="middle" font-size="11" fill="#1e40af">Secrets</text>

  <!-- Bidirectional arrows down from core services -->
  <!-- LLM <-> Providers -->
  <line x1="117" y1="442" x2="117" y2="478" stroke="#64748b" stroke-width="1.5" marker-end="url(#arrow)"/>
  <line x1="127" y1="478" x2="127" y2="442" stroke="#64748b" stroke-width="1.5" marker-end="url(#arrow)"/>

  <!-- Data Store <-> Files -->
  <line x1="332" y1="442" x2="332" y2="478" stroke="#64748b" stroke-width="1.5" marker-end="url(#arrow)"/>
  <line x1="342" y1="478" x2="342" y2="442" stroke="#64748b" stroke-width="1.5" marker-end="url(#arrow)"/>

  <!-- Core <-> n8n/External -->
  <line x1="725" y1="442" x2="725" y2="478" stroke="#a855f7" stroke-width="1.5" marker-end="url(#arrow-purple)"/>
  <line x1="735" y1="478" x2="735" y2="442" stroke="#a855f7" stroke-width="1.5" marker-end="url(#arrow-purple)"/>

  <!-- LLM Providers -->
  <rect x="30" y="480" width="260" height="70" rx="6" fill="#fef3c7" stroke="#f59e0b" stroke-width="1.5"/>
  <text x="50" y="500" font-weight="bold" fill="#92400e" font-size="12">LLM PROVIDERS</text>
  <text x="50" y="518" font-size="11" fill="#92400e">Anthropic Claude</text>
  <text x="50" y="532" font-size="11" fill="#92400e">Google Gemini</text>
  <text x="175" y="518" font-size="11" fill="#92400e">OpenAI / Compatible</text>
  <text x="175" y="532" font-size="11" fill="#92400e">Ollama (local)</text>

  <!-- Data Layer -->
  <rect x="310" y="480" width="280" height="70" rx="6" fill="#fce7f3" stroke="#ec4899" stroke-width="1.5"/>
  <text x="330" y="500" font-weight="bold" fill="#9d174d" font-size="12">DATA (Markdown + YAML)</text>
  <text x="330" y="518" font-size="11" fill="#9d174d">data/users/&lt;id&gt;/&lt;app&gt;/</text>
  <text x="330" y="532" font-size="11" fill="#9d174d">data/spaces/&lt;id&gt;/&lt;app&gt;/</text>
  <text x="490" y="518" font-size="11" fill="#9d174d">data/system/</text>
  <text x="490" y="532" font-size="11" fill="#9d174d">Obsidian-ready</text>

  <!-- n8n + External block (enlarged, emphasized) -->
  <rect x="610" y="480" width="260" height="130" rx="6" fill="#f3e8ff" stroke="#a855f7" stroke-width="2"/>
  <text x="630" y="500" font-weight="bold" fill="#7e22ce" font-size="12">EXTERNAL INTEGRATION</text>

  <!-- n8n sub-box -->
  <rect x="622" y="508" width="236" height="52" rx="4" fill="#e9d5ff" stroke="#a855f7" stroke-width="1"/>
  <text x="740" y="526" text-anchor="middle" font-weight="600" font-size="12" fill="#7e22ce">n8n Workflow Engine</text>
  <text x="740" y="542" text-anchor="middle" font-size="10" fill="#7e22ce">Ingest external data, trigger automations,</text>
  <text x="740" y="553" text-anchor="middle" font-size="10" fill="#7e22ce">connect 400+ services into PAS</text>

  <text x="630" y="578" font-size="11" fill="#7e22ce">Webhooks (HMAC-signed)</text>
  <text x="630" y="594" font-size="11" fill="#7e22ce">REST API (Bearer auth)</text>

  <!-- n8n bidirectional explanation arrows to left -->
  <line x1="610" y1="530" x2="520" y2="530" stroke="#a855f7" stroke-width="1.5" stroke-dasharray="4,3" marker-end="url(#arrow-purple)"/>
  <line x1="520" y1="540" x2="610" y2="540" stroke="#a855f7" stroke-width="1.5" stroke-dasharray="4,3" marker-end="url(#arrow-purple)"/>
  <text x="535" y="525" font-size="9" fill="#a855f7">write data</text>
  <text x="535" y="552" font-size="9" fill="#a855f7">read data</text>

  <!-- n8n arrow to Telegram (send messages) -->
  <line x1="620" y1="508" x2="510" y2="77" stroke="#a855f7" stroke-width="1" stroke-dasharray="4,3" marker-end="url(#arrow-purple)"/>
  <text x="545" y="260" font-size="9" fill="#a855f7" transform="rotate(-62, 545, 260)">send messages</text>

  <!-- Single process note -->
  <rect x="50" y="628" width="820" height="36" rx="6" fill="#f1f5f9" stroke="#cbd5e1" stroke-width="1"/>
  <text x="460" y="651" text-anchor="middle" font-size="12" fill="#475569">Single Node.js process  ·  TypeScript strict ESM  ·  No database  ·  Mac Mini with 32GB RAM</text>

  <!-- Legend -->
  <text x="70" y="690" font-size="11" font-weight="bold" fill="#475569">Legend:</text>

  <line x1="130" y1="686" x2="155" y2="686" stroke="#64748b" stroke-width="1.5" marker-end="url(#arrow)"/>
  <line x1="155" y1="692" x2="130" y2="692" stroke="#64748b" stroke-width="1.5" marker-end="url(#arrow)"/>
  <text x="163" y="692" font-size="11" fill="#475569">Bidirectional flow</text>

  <rect x="290" y="680" width="14" height="14" rx="2" fill="#bbf7d0" stroke="#22c55e"/>
  <text x="310" y="692" font-size="11" fill="#475569">App plugins</text>

  <rect x="400" y="680" width="14" height="14" rx="2" fill="#bfdbfe" stroke="#3b82f6"/>
  <text x="420" y="692" font-size="11" fill="#475569">Infrastructure</text>

  <rect x="520" y="680" width="14" height="14" rx="2" fill="#fef3c7" stroke="#f59e0b"/>
  <text x="540" y="692" font-size="11" fill="#475569">LLM providers</text>

  <rect x="640" y="680" width="14" height="14" rx="2" fill="#fce7f3" stroke="#ec4899"/>
  <text x="660" y="692" font-size="11" fill="#475569">Persistence</text>

  <rect x="750" y="680" width="14" height="14" rx="2" fill="#f3e8ff" stroke="#a855f7" stroke-width="2"/>
  <text x="770" y="692" font-size="11" fill="#475569">External</text>
</svg>
